<?xml version="1.0" standalone="no"?>
<!DOCTYPE svg PUBLIC "-//W3C//DTD SVG 20010904//EN"
 "http://www.w3.org/TR/2001/REC-SVG-20010904/DTD/svg10.dtd">
<svg version="1.0" xmlns="http://www.w3.org/2000/svg"
 width="600.000000pt" height="200.000000pt" viewBox="0 0 600.000000 200.000000"
 preserveAspectRatio="xMidYMid meet">

<g transform="translate(0.000000,200.000000) scale(0.100000,-0.100000)"
fill="#000000" stroke="none">
<path d="M3575 1436 c-16 -12 -20 -37 -31 -192 -6 -99 -17 -213 -23 -255 -14
-92 -18 -216 -8 -246 12 -32 55 -39 83 -12 24 23 38 71 54 188 6 41 13 77 15
79 2 3 11 -1 19 -8 21 -16 88 -4 121 22 19 14 25 28 23 47 -3 25 -5 26 -68 26
-36 -1 -74 -5 -84 -10 -18 -8 -19 -5 -13 31 4 21 10 101 14 176 5 104 3 141
-7 153 -16 19 -70 20 -95 1z"/>
<path d="M4063 1440 c-15 -6 -23 -18 -23 -35 0 -27 31 -65 55 -65 11 0 9 -8
-9 -34 -50 -74 -39 -171 24 -214 29 -20 44 -23 85 -19 59 6 199 49 273 84 43
20 53 29 50 46 -4 29 -51 33 -158 13 -45 -9 -102 -16 -125 -16 l-43 0 1 53 c1
28 -2 61 -7 71 -8 17 -6 18 19 12 52 -13 192 4 228 28 44 30 46 52 5 64 -46
14 -348 24 -375 12z"/>
<path d="M2398 1429 c-16 -9 -18 -28 -18 -165 0 -115 -3 -156 -12 -158 -7 -2
-69 -14 -137 -27 -69 -13 -131 -30 -138 -37 -29 -29 -5 -92 35 -92 9 0 65 12
124 27 59 15 109 25 113 22 3 -3 -1 -52 -8 -109 -14 -112 -10 -107 -92 -136
-63 -22 -133 -92 -174 -175 -41 -82 -41 -130 -2 -170 47 -47 104 -35 167 33
62 66 114 185 114 259 0 30 4 39 23 44 35 11 66 46 77 84 5 20 14 130 20 246
14 294 15 332 0 350 -14 17 -66 19 -92 4z m-182 -877 c-8 -15 -22 -34 -30 -41
-13 -11 -14 -9 -6 19 5 18 17 44 27 59 14 21 18 23 21 9 2 -9 -4 -30 -12 -46z"/>
<path d="M5376 1404 l-39 -27 6 -391 c4 -256 10 -402 18 -424 6 -19 24 -39 41
-48 27 -14 32 -14 58 3 l29 18 5 432 5 433 -22 15 c-31 22 -57 19 -101 -11z"/>
<path d="M1493 1352 c-32 -21 -59 -175 -73 -422 -6 -102 -13 -205 -16 -230 -7
-51 9 -122 31 -140 22 -18 63 -4 80 29 14 28 38 236 66 578 12 144 11 154 -6
173 -18 20 -60 26 -82 12z"/>
<path d="M1803 1311 c-66 -11 -96 -49 -73 -91 17 -31 54 -42 107 -30 88 20 80
-2 -83 -216 -102 -135 -153 -269 -116 -306 33 -33 74 11 287 312 89 125 114
173 115 221 0 38 -19 88 -39 98 -24 13 -149 21 -198 12z"/>
<path d="M1264 1300 c-22 -9 -34 -46 -49 -147 -4 -24 -8 -43 -10 -43 -1 0 -40
-7 -86 -16 -95 -18 -132 -34 -154 -68 -14 -22 -15 -28 -1 -60 8 -20 22 -39 30
-42 8 -3 47 4 88 16 40 12 81 24 91 26 15 5 17 -2 17 -59 l0 -65 -47 -7 c-27
-3 -82 -5 -123 -3 -70 3 -78 1 -113 -26 -60 -46 -63 -113 -7 -136 45 -18 161
-5 229 25 30 14 55 24 55 23 1 -2 7 -15 14 -30 16 -39 55 -62 81 -49 26 14 32
35 40 150 4 53 20 176 36 273 15 97 25 183 22 192 -13 33 -79 60 -113 46z"/>
<path d="M2974 1269 c-25 -27 -30 -129 -15 -286 19 -189 35 -204 188 -179 69
10 101 20 118 36 23 22 54 95 85 205 21 72 13 101 -39 150 -26 24 -41 30 -94
33 -79 5 -117 -19 -117 -74 0 -33 1 -34 43 -34 60 0 82 -18 74 -61 -14 -87
-73 -170 -111 -156 -19 8 -40 191 -32 280 5 58 3 73 -10 88 -23 25 -66 24 -90
-2z"/>
<path d="M651 1158 c-34 -5 -81 -18 -102 -29 -32 -16 -39 -25 -39 -48 0 -69
71 -108 176 -97 51 5 64 4 64 -8 0 -25 -31 -90 -90 -186 -71 -115 -102 -203
-98 -274 3 -50 4 -51 36 -54 34 -3 72 19 72 42 0 24 79 165 138 247 82 115
115 187 116 260 1 78 -21 107 -105 136 -70 24 -75 25 -168 11z"/>
<path d="M4734 1139 c-23 -12 -44 -49 -44 -78 0 -29 36 -67 79 -84 32 -13 51
-14 102 -6 34 5 66 6 70 2 18 -18 -37 -97 -147 -215 -122 -130 -157 -187 -152
-240 3 -29 7 -33 34 -36 38 -4 104 48 234 184 181 189 229 265 217 341 -16 94
-82 130 -252 138 -79 3 -127 1 -141 -6z"/>
<path d="M3887 992 c-26 -29 -20 -60 21 -102 l37 -38 160 9 c318 17 455 55
455 126 l0 26 -82 -7 c-249 -22 -300 -25 -376 -25 -52 -1 -96 5 -119 14 -47
20 -76 19 -96 -3z"/>
<path d="M1931 944 c-35 -25 -28 -77 17 -125 44 -47 84 -61 131 -45 73 24 64
72 -25 131 -74 50 -97 57 -123 39z"/>
<path d="M4047 792 c-36 -37 -34 -80 3 -99 14 -7 61 -13 108 -13 77 0 82 -1
82 -21 0 -13 -18 -38 -45 -61 -77 -67 -94 -131 -55 -195 23 -39 114 -93 155
-93 74 0 238 138 289 243 45 92 11 108 -52 24 -44 -59 -114 -108 -179 -128
-38 -11 -45 -10 -63 6 -28 26 -25 39 18 73 50 40 86 113 87 176 0 69 -22 84
-150 97 -55 5 -116 12 -135 15 -30 5 -39 1 -63 -24z"/>
<path d="M3241 736 c-14 -8 -28 -22 -32 -32 -12 -30 -10 -223 2 -246 15 -28
86 -58 139 -58 113 0 290 73 339 141 32 43 40 79 19 79 -7 0 -78 -23 -158 -50
-80 -28 -162 -50 -184 -50 l-39 0 7 91 c6 74 4 96 -9 115 -17 27 -47 30 -84
10z"/>
</g>
</svg>
