<?xml version="1.0" standalone="no"?>
<!DOCTYPE svg PUBLIC "-//W3C//DTD SVG 20010904//EN"
 "http://www.w3.org/TR/2001/REC-SVG-20010904/DTD/svg10.dtd">
<svg version="1.0" xmlns="http://www.w3.org/2000/svg"
 width="600.000000pt" height="200.000000pt" viewBox="0 0 600.000000 200.000000"
 preserveAspectRatio="xMidYMid meet">

<g transform="translate(0.000000,200.000000) scale(0.100000,-0.100000)"
fill="#000000" stroke="none">
<path d="M4180 1477 c-40 -20 -50 -120 -18 -199 19 -50 80 -25 98 40 14 51 13
137 -2 150 -24 18 -53 22 -78 9z"/>
<path d="M1770 1444 c-6 -14 -10 -53 -10 -87 0 -34 -7 -107 -15 -162 -23 -159
-17 -275 16 -296 20 -12 49 3 64 31 16 31 43 272 47 416 3 105 -6 124 -58 124
-28 0 -36 -5 -44 -26z"/>
<path d="M3039 1447 c-32 -24 -39 -51 -22 -85 18 -36 58 -82 72 -82 5 0 23 12
40 26 35 29 40 66 15 104 -34 50 -71 63 -105 37z"/>
<path d="M1014 1431 c-18 -11 -35 -24 -39 -31 -12 -20 -66 -402 -74 -532 -8
-122 -1 -271 15 -313 19 -52 61 -69 100 -41 17 13 19 32 26 213 6 185 28 392
64 595 12 65 13 91 5 107 -15 27 -55 27 -97 2z"/>
<path d="M4549 1431 l-24 -19 3 -194 c2 -213 14 -330 37 -365 36 -54 99 -2 93
77 l-3 45 57 6 c66 7 88 21 88 55 0 30 -20 40 -94 49 l-59 8 4 176 4 176 -41
3 c-29 2 -48 -3 -65 -17z"/>
<path d="M2586 1421 c-12 -13 -20 -51 -27 -137 -6 -65 -15 -128 -19 -139 -7
-18 -22 -22 -100 -32 -72 -9 -98 -17 -116 -34 -29 -27 -31 -62 -4 -99 l20 -28
57 23 c32 13 73 26 90 30 33 7 33 6 26 -27 -4 -18 -8 -70 -8 -114 0 -97 17
-127 69 -122 43 4 52 30 66 180 6 70 17 163 24 205 23 131 29 225 17 271 -11
39 -14 42 -45 42 -19 0 -40 -8 -50 -19z"/>
<path d="M5577 1407 l-39 -22 4 -405 c3 -432 3 -433 54 -467 24 -16 28 -15 59
2 l34 18 -2 251 c-1 138 2 330 7 427 8 172 7 178 -13 198 -27 27 -56 26 -104
-2z"/>
<path d="M1976 1347 c-36 -55 -71 -427 -47 -500 16 -46 56 -96 89 -108 32 -12
132 33 179 81 39 38 80 158 112 323 34 174 26 217 -39 217 -39 0 -58 -22 -65
-78 -3 -26 -11 -76 -18 -111 l-12 -63 -62 -24 c-73 -27 -69 -34 -49 99 8 50
17 113 20 140 l6 47 -50 0 c-40 0 -52 -4 -64 -23z m164 -396 c0 -36 -17 -83
-33 -93 -25 -16 -45 -8 -52 22 -9 42 1 66 38 84 44 21 47 20 47 -13z"/>
<path d="M1191 1334 c-29 -36 -36 -81 -36 -214 1 -136 21 -221 61 -246 52 -35
232 22 294 92 55 64 68 238 20 289 -47 50 -155 58 -211 15 l-29 -21 2 42 c1
31 -4 45 -17 55 -29 21 -62 17 -84 -12z m167 -154 c24 0 52 -5 63 -10 27 -15
25 -69 -6 -130 -21 -42 -31 -51 -66 -60 -31 -9 -44 -9 -53 0 -12 12 -22 180
-12 207 5 12 9 14 18 5 7 -7 32 -12 56 -12z"/>
<path d="M382 1272 c-48 -48 -72 -214 -72 -503 0 -204 0 -204 63 -228 35 -14
147 2 188 26 44 26 105 145 133 258 37 151 70 340 63 358 -3 9 -17 23 -32 33
-37 24 -78 4 -104 -50 -21 -43 -41 -144 -41 -207 l0 -36 -61 -12 c-34 -7 -64
-10 -67 -6 -3 3 4 61 17 128 43 227 42 242 -32 254 -27 4 -39 1 -55 -15z m153
-509 c-12 -67 -36 -98 -79 -101 l-37 -3 6 38 c11 65 15 71 53 87 59 24 65 22
57 -21z"/>
<path d="M2946 1240 c-105 -8 -148 -27 -154 -67 -6 -37 26 -56 82 -49 213 25
211 26 156 -54 -63 -92 -90 -157 -90 -216 0 -65 29 -108 69 -102 l26 4 -2 -96
c-1 -90 -2 -95 -25 -101 -43 -13 -145 -9 -188 6 -41 15 -42 14 -71 -14 -16
-16 -29 -39 -29 -50 0 -33 22 -71 45 -77 34 -8 503 59 567 82 51 18 98 60 98
87 0 22 -19 22 -219 -2 -47 -6 -87 -9 -89 -7 -2 3 2 14 8 26 6 11 14 51 17 88
5 59 3 69 -16 86 l-21 19 41 44 c72 78 82 142 29 175 -27 17 -27 80 0 130 11
21 17 44 14 51 -14 36 -99 49 -248 37z m154 -294 c0 -16 -50 -79 -57 -72 -2 2
5 22 17 45 20 41 40 54 40 27z"/>
<path d="M3981 1219 c-31 -29 -36 -58 -13 -82 19 -19 25 -19 106 -9 48 6 96 8
107 4 20 -8 20 -9 -8 -38 -15 -16 -71 -67 -124 -112 -79 -67 -103 -94 -133
-151 -36 -69 -45 -114 -25 -126 25 -16 69 13 160 106 54 54 103 99 111 99 7 0
20 -15 28 -32 22 -46 61 -71 122 -75 63 -5 88 9 91 52 2 29 0 31 -96 64 l-97
33 49 53 c62 68 91 127 82 163 -12 45 -58 59 -208 65 -118 4 -134 3 -152 -14z"/>
<path d="M4933 1140 c-27 -11 -43 -40 -43 -77 0 -38 15 -57 67 -83 37 -19 48
-20 99 -11 77 15 84 14 84 -7 0 -31 -57 -107 -170 -227 -85 -90 -112 -126
-125 -165 -22 -67 -14 -90 33 -90 35 0 48 11 212 178 189 191 233 253 233 328
0 49 -29 102 -72 127 -51 30 -265 48 -318 27z"/>
<path d="M1544 840 c-135 -14 -164 -31 -164 -92 0 -43 29 -52 101 -34 33 9 74
16 90 16 27 0 29 -2 19 -21 -6 -11 -35 -35 -65 -54 -106 -68 -136 -159 -85
-254 28 -53 155 -67 257 -30 65 25 139 92 172 158 32 62 7 65 -77 8 -73 -50
-122 -67 -193 -67 -35 0 -49 4 -54 17 -8 21 36 63 65 63 31 0 86 64 109 125
34 89 26 132 -29 160 -31 16 -37 16 -146 5z"/>
<path d="M4395 746 c-103 -17 -123 -23 -135 -46 -22 -42 4 -61 99 -69 l64 -6
-68 -80 c-132 -156 -172 -234 -146 -284 21 -39 48 -26 95 46 24 38 86 116 139
175 130 144 144 176 112 237 -23 45 -32 47 -160 27z"/>
<path d="M2194 727 c-25 -22 -26 -29 -31 -132 -6 -123 2 -155 44 -182 36 -24
130 -23 201 1 109 37 232 144 232 203 0 31 -22 29 -82 -7 -66 -41 -210 -100
-244 -100 l-27 0 6 99 c7 99 7 100 -19 120 -34 27 -47 26 -80 -2z"/>
<path d="M4510 530 c-12 -12 -19 -28 -16 -37 3 -8 6 -19 6 -23 0 -5 13 -24 29
-43 55 -62 153 -73 201 -22 19 20 21 27 10 40 -7 8 -20 15 -29 15 -15 0 -59
24 -112 61 -42 30 -66 32 -89 9z"/>
</g>
</svg>
