<?xml version="1.0" standalone="no"?>
<!DOCTYPE svg PUBLIC "-//W3C//DTD SVG 20010904//EN"
 "http://www.w3.org/TR/2001/REC-SVG-20010904/DTD/svg10.dtd">
<svg version="1.0" xmlns="http://www.w3.org/2000/svg"
 width="600.000000pt" height="200.000000pt" viewBox="0 0 600.000000 200.000000"
 preserveAspectRatio="xMidYMid meet">

<g transform="translate(0.000000,200.000000) scale(0.100000,-0.100000)"
fill="#000000" stroke="none">
<path d="M4020 1477 c-40 -20 -50 -120 -18 -199 19 -50 80 -25 98 40 14 51 13
137 -2 150 -24 18 -53 22 -78 9z"/>
<path d="M4389 1431 l-24 -19 3 -194 c2 -213 14 -330 37 -365 36 -54 99 -2 93
77 l-3 45 57 6 c66 7 88 21 88 55 0 30 -20 40 -94 49 l-59 8 4 176 4 176 -41
3 c-29 2 -48 -3 -65 -17z"/>
<path d="M2332 1430 c-12 -5 -27 -22 -33 -37 -34 -86 -58 -698 -31 -789 14
-50 50 -76 95 -72 l32 3 6 275 c3 151 11 348 19 437 7 89 10 168 7 177 -7 18
-57 21 -95 6z"/>
<path d="M5417 1407 l-39 -22 4 -405 c3 -432 3 -433 54 -467 24 -16 28 -15 59
2 l34 18 -2 251 c-1 138 2 330 7 427 8 172 7 178 -13 198 -27 27 -56 26 -104
-2z"/>
<path d="M1153 1393 c-12 -2 -27 -11 -34 -19 -29 -35 -35 -605 -9 -705 13 -46
46 -89 69 -89 10 0 27 10 39 23 20 21 22 34 22 135 0 62 2 112 5 112 3 0 16
-6 28 -14 35 -22 99 -28 183 -17 80 11 126 34 132 64 5 26 -30 36 -162 49
-124 12 -126 11 -149 -10 -33 -32 -38 -28 -33 26 3 26 11 127 17 225 12 171
12 179 -7 197 -21 20 -66 30 -101 23z"/>
<path d="M3170 1391 c-54 -14 -67 -89 -90 -486 -12 -199 -7 -302 16 -347 24
-46 105 -47 118 -1 2 10 7 97 11 193 3 96 15 262 26 369 23 216 21 252 -17
269 -27 13 -28 13 -64 3z"/>
<path d="M3829 1226 c-24 -17 -41 -55 -34 -76 9 -28 41 -33 128 -21 42 6 86 7
98 3 21 -8 20 -9 -12 -42 -19 -18 -75 -69 -125 -111 -74 -63 -98 -92 -128
-148 -36 -69 -45 -114 -25 -126 25 -16 69 13 160 106 54 54 103 99 111 99 7 0
20 -15 28 -32 22 -46 61 -71 122 -75 63 -5 88 9 91 52 2 29 0 31 -96 64 l-97
33 49 53 c95 105 109 174 41 206 -44 21 -288 33 -311 15z"/>
<path d="M2478 1185 c-22 -36 -23 -86 -3 -125 11 -22 12 -35 4 -60 -7 -19 -10
-76 -7 -144 5 -131 29 -195 88 -234 30 -21 43 -23 97 -18 84 7 247 63 297 101
42 32 58 71 34 86 -15 10 -84 4 -209 -18 -48 -8 -99 -13 -115 -11 l-29 3 4
111 3 111 -28 22 c-39 31 -23 38 105 46 58 3 116 8 128 11 41 8 67 89 43 135
-10 18 -21 19 -202 17 l-191 -3 -19 -30z"/>
<path d="M4773 1140 c-27 -11 -43 -40 -43 -77 0 -38 15 -57 67 -83 37 -19 48
-20 99 -11 77 15 84 14 84 -7 0 -31 -57 -107 -170 -227 -85 -90 -112 -126
-125 -165 -22 -67 -14 -90 33 -90 35 0 48 11 212 178 189 191 233 253 233 328
0 49 -29 102 -72 127 -51 30 -265 48 -318 27z"/>
<path d="M1771 1094 c-60 -50 -132 -239 -147 -384 -6 -50 -4 -57 21 -80 37
-35 134 -36 182 -3 56 41 153 206 174 301 10 41 9 54 -6 87 -16 32 -30 43 -92
71 -41 19 -80 34 -88 34 -7 0 -27 -12 -44 -26z m68 -229 c-32 -78 -72 -136
-84 -123 -12 12 47 171 72 196 43 43 48 13 12 -73z"/>
<path d="M627 1051 c-56 -60 -99 -143 -133 -258 -31 -107 -28 -154 14 -196 52
-52 144 -30 214 52 47 56 139 241 145 294 7 59 -6 79 -72 113 -31 15 -58 32
-61 36 -3 4 -18 8 -33 8 -21 0 -40 -13 -74 -49z m83 -168 c-24 -74 -110 -203
-110 -164 0 21 69 184 87 203 25 28 38 7 23 -39z"/>
<path d="M4235 746 c-103 -17 -123 -23 -135 -46 -22 -42 4 -61 99 -69 l64 -6
-68 -80 c-132 -156 -172 -234 -146 -284 21 -39 48 -26 95 46 24 38 81 110 127
161 139 155 156 190 124 251 -23 45 -32 47 -160 27z"/>
<path d="M4350 530 c-12 -12 -19 -28 -16 -37 3 -8 6 -19 6 -23 0 -5 13 -24 29
-43 55 -62 153 -73 201 -22 19 20 21 27 10 40 -7 8 -20 15 -29 15 -15 0 -59
24 -112 61 -42 30 -66 32 -89 9z"/>
</g>
</svg>
