<?xml version="1.0" standalone="no"?>
<!DOCTYPE svg PUBLIC "-//W3C//DTD SVG 20010904//EN"
 "http://www.w3.org/TR/2001/REC-SVG-20010904/DTD/svg10.dtd">
<svg version="1.0" xmlns="http://www.w3.org/2000/svg"
 width="200.000000pt" height="200.000000pt" viewBox="0 0 200.000000 200.000000"
 preserveAspectRatio="xMidYMid meet">

<g transform="translate(0.000000,200.000000) scale(0.100000,-0.100000)"
fill="#000000" stroke="none">
<path d="M1185 1636 c-47 -21 -557 -558 -574 -604 -23 -62 -10 -86 117 -215
l116 -117 56 55 55 55 -89 89 c-49 49 -87 94 -85 99 6 17 450 472 460 472 16
0 470 -444 467 -457 -4 -16 -447 -473 -459 -473 -5 0 -29 18 -52 40 l-43 39
-55 -55 -54 -55 71 -69 c75 -71 109 -87 167 -75 33 7 105 77 447 436 160 168
176 196 150 260 -15 34 -535 545 -583 572 -38 20 -71 21 -112 3z"/>
<path d="M700 1623 c-32 -17 -144 -128 -461 -458 -80 -84 -118 -130 -122 -152
-14 -71 -2 -87 293 -372 305 -295 322 -307 393 -277 32 13 147 127 468 461
168 175 168 192 -4 363 l-112 112 -55 -55 -54 -55 87 -88 c48 -48 87 -92 87
-97 0 -14 -427 -458 -451 -469 -16 -7 -56 27 -246 211 -126 121 -229 227 -231
234 -3 15 418 458 450 473 15 8 27 1 62 -33 l43 -42 51 58 51 58 -42 43 c-88
90 -148 114 -207 85z"/>
</g>
</svg>
