<?xml version="1.0" standalone="no"?>
<!DOCTYPE svg PUBLIC "-//W3C//DTD SVG 20010904//EN"
 "http://www.w3.org/TR/2001/REC-SVG-20010904/DTD/svg10.dtd">
<svg version="1.0" xmlns="http://www.w3.org/2000/svg"
 width="600.000000pt" height="200.000000pt" viewBox="0 0 600.000000 200.000000"
 preserveAspectRatio="xMidYMid meet">

<g transform="translate(0.000000,200.000000) scale(0.100000,-0.100000)"
fill="#000000" stroke="none">
<path d="M3368 1455 c-21 -14 -38 -30 -38 -34 0 -5 14 -21 32 -36 29 -24 36
-26 97 -20 36 4 73 9 83 11 37 11 24 -17 -35 -71 -140 -130 -158 -150 -183
-201 -47 -96 -42 -174 11 -174 20 0 39 19 93 93 66 89 184 209 188 191 1 -5 5
-21 8 -36 13 -59 185 -99 235 -54 40 36 28 49 -79 85 -57 19 -111 31 -126 28
l-25 -4 24 26 c66 70 85 146 48 192 -18 23 -26 24 -158 27 -135 3 -139 3 -175
-23z"/>
<path d="M740 1447 c-111 -46 -204 -128 -243 -216 -29 -66 -36 -204 -12 -231
23 -25 102 -27 151 -4 47 22 143 128 181 199 34 64 38 88 35 203 -2 72 -2 72
-29 72 -16 0 -53 -11 -83 -23z m-10 -170 c0 -31 -105 -167 -129 -167 -33 0 27
121 77 155 41 28 52 31 52 12z"/>
<path d="M1845 1387 c-70 -73 -98 -209 -111 -532 -11 -264 4 -329 76 -327 58
1 63 13 66 189 3 161 23 374 49 524 20 112 19 152 -3 172 -26 24 -30 22 -77
-26z"/>
<path d="M5713 1403 c-63 -55 -93 -150 -113 -358 -15 -168 -13 -438 4 -480 14
-31 19 -35 54 -35 64 0 72 17 72 157 0 141 22 382 50 555 24 150 24 144 0 168
-26 26 -30 25 -67 -7z"/>
<path d="M4804 1377 c-25 -22 -28 -32 -35 -123 -4 -54 -8 -226 -9 -382 0 -264
1 -285 20 -322 22 -44 50 -63 83 -58 37 5 46 55 46 268 1 107 6 269 12 360 16
250 17 239 -10 261 -31 26 -74 24 -107 -4z"/>
<path d="M2624 1357 l-27 -24 17 -164 c9 -90 16 -193 16 -229 1 -144 31 -286
71 -328 25 -27 43 -28 69 -2 17 17 20 33 20 115 l0 95 25 -16 c20 -13 43 -16
118 -12 103 5 156 24 178 64 23 45 -4 54 -157 54 -105 0 -134 -3 -144 -15 -7
-8 -16 -15 -20 -15 -5 0 -10 102 -12 226 l-3 226 -28 24 c-37 31 -87 32 -123
1z"/>
<path d="M1194 1250 c-26 -10 -54 -48 -54 -72 0 -10 13 -32 29 -50 l29 -33 54
17 c80 26 82 26 101 16 12 -6 17 -21 17 -52 0 -48 -21 -74 -81 -99 -48 -20
-116 -82 -138 -126 -44 -86 -52 -201 -18 -252 34 -51 80 -71 147 -63 106 12
273 77 328 127 13 12 22 32 22 49 0 37 -33 45 -97 24 -66 -22 -213 -56 -240
-56 -18 0 -23 6 -23 28 0 15 4 32 9 38 5 5 13 29 18 53 l8 43 78 28 c43 15 82
32 87 36 17 18 60 166 60 207 0 56 -28 108 -71 129 -26 14 -58 18 -139 17 -58
0 -115 -4 -126 -9z"/>
<path d="M5031 1234 c-39 -33 -41 -74 -6 -109 29 -30 25 -29 99 -6 70 21 94
18 102 -16 14 -53 -7 -86 -81 -125 -92 -50 -138 -101 -159 -178 -26 -90 -26
-162 0 -196 38 -52 71 -69 127 -68 149 4 384 115 375 177 -6 41 -30 42 -150 9
-63 -18 -138 -35 -166 -39 -48 -5 -52 -4 -52 14 0 12 7 34 15 49 8 16 15 41
15 55 0 33 10 41 93 69 37 13 73 31 81 39 7 9 26 55 41 103 30 97 28 148 -8
194 -33 42 -75 54 -191 54 -98 0 -106 -2 -135 -26z"/>
<path d="M2114 1131 c-128 -16 -169 -75 -99 -145 44 -44 72 -52 144 -38 31 5
59 7 64 3 9 -9 -43 -92 -102 -161 -116 -134 -163 -228 -140 -281 24 -59 72
-49 121 24 20 29 75 95 123 147 112 121 201 240 216 290 16 54 -11 106 -72
137 -51 25 -160 35 -255 24z"/>
<path d="M4012 1124 c-64 -33 -70 -93 -12 -132 29 -20 43 -23 83 -17 26 3 54
8 62 11 27 11 16 -16 -50 -126 -114 -189 -137 -257 -97 -293 40 -36 84 -15
106 50 16 46 30 68 124 183 118 146 140 274 54 316 -53 27 -224 31 -270 8z"/>
<path d="M4387 1102 c-36 -39 -3 -129 53 -147 23 -7 19 -21 -35 -115 -80 -140
-106 -258 -66 -294 37 -33 77 -3 108 79 11 28 47 93 80 146 75 117 93 159 93
213 0 52 -31 85 -108 115 -65 26 -104 27 -125 3z"/>
<path d="M3542 1078 c-11 -13 -25 -36 -31 -51 -14 -37 -14 -123 0 -149 14 -26
3 -34 -65 -42 -121 -15 -243 -39 -269 -53 -22 -11 -28 -20 -25 -41 4 -34 38
-52 102 -52 43 0 303 46 543 96 82 17 123 44 123 80 0 35 -21 39 -119 26 -47
-7 -112 -15 -143 -18 l-57 -7 25 48 c33 66 34 147 2 169 -31 22 -61 20 -86 -6z"/>
<path d="M253 870 c-50 -20 -53 -75 -6 -130 39 -47 63 -53 152 -36 42 8 116
18 165 22 l89 7 -21 -21 c-29 -29 -35 -59 -30 -155 7 -132 54 -201 102 -148
20 22 56 215 48 256 -2 14 -17 36 -32 49 l-28 23 146 12 c161 13 213 24 232
46 19 22 2 53 -36 65 -42 14 -204 14 -369 0 -167 -14 -273 -12 -320 5 -46 16
-61 17 -92 5z"/>
<path d="M3545 679 c-44 -10 -92 -19 -106 -19 -63 0 -103 -75 -61 -113 24 -22
25 -22 131 9 49 14 102 24 118 22 l28 -3 -3 -76 c-3 -60 -1 -78 13 -89 54 -45
155 160 115 235 -15 28 -77 55 -123 54 -17 0 -68 -9 -112 -20z"/>
</g>
</svg>
